<?xml version="1.0" standalone="no"?>
<!DOCTYPE svg PUBLIC "-//W3C//DTD SVG 20010904//EN"
 "http://www.w3.org/TR/2001/REC-SVG-20010904/DTD/svg10.dtd">
<svg version="1.0" xmlns="http://www.w3.org/2000/svg"
 width="264.000000pt" height="264.000000pt" viewBox="0 0 264.000000 264.000000"
 preserveAspectRatio="xMidYMid meet">
<metadata>
Created by potrace 1.14, written by Peter Selinger 2001-2017
</metadata>
<g transform="translate(0.000000,264.000000) scale(0.100000,-0.100000)"
fill="#000000" stroke="none">
<path d="M0 1320 l0 -1320 1320 0 1320 0 0 1320 0 1320 -1320 0 -1320 0 0
-1320z m845 1125 c132 -35 246 -125 279 -222 21 -62 21 -139 0 -147 -26 -10
-291 -7 -318 4 -14 5 -26 17 -26 26 0 9 -15 31 -34 50 -46 46 -104 48 -147 5
l-29 -29 0 -166 c0 -176 6 -207 47 -225 62 -28 132 -3 156 57 10 25 24 42 39
46 44 11 303 7 316 -6 17 -17 15 -86 -5 -144 -11 -33 -34 -67 -72 -105 -95
-94 -197 -129 -376 -129 -277 1 -430 100 -465 303 -18 100 -8 397 15 459 35
99 146 187 278 223 72 19 267 19 342 0z m1253 -10 c90 -21 152 -56 205 -115
55 -61 77 -124 77 -216 0 -94 -29 -162 -94 -222 l-54 -48 90 -167 c74 -137 88
-170 78 -182 -10 -12 -44 -15 -176 -15 -147 0 -166 2 -180 18 -8 10 -42 77
-74 148 -55 123 -59 129 -89 132 l-31 3 0 -138 c0 -95 -4 -143 -12 -151 -17
-17 -309 -17 -326 0 -17 17 -17 939 0 956 19 19 504 16 586 -3z m-1280 -1237
c9 -9 12 -130 12 -484 0 -421 -2 -473 -16 -478 -31 -12 -319 -7 -332 6 -17 17
-17 939 0 956 17 17 319 17 336 0z m1334 0 c9 -7 89 -221 178 -476 130 -372
159 -466 150 -478 -10 -11 -44 -14 -160 -14 -166 0 -164 -1 -195 83 l-18 48
-150 -3 -150 -3 -16 -46 c-28 -80 -24 -79 -198 -79 -125 0 -155 3 -159 15 -8
20 313 937 334 953 11 8 66 12 192 12 126 0 181 -4 192 -12z"/>
<path d="M1850 2115 l0 -75 63 0 c34 0 67 4 73 8 21 14 36 54 29 80 -12 50
-32 62 -102 62 l-63 0 0 -75z"/>
<path d="M1918 757 c-20 -67 -35 -123 -34 -125 2 -1 37 -2 78 0 l75 3 -36 117
c-20 64 -38 119 -41 121 -3 3 -22 -49 -42 -116z"/>
</g>
</svg>
